<svg xmlns="http://www.w3.org/2000/svg" viewBox="0 0 32 32" fill="none">
  <defs>
    <linearGradient id="bg" x1="0%" y1="0%" x2="100%" y2="100%">
      <stop offset="0%" stop-color="#FFE4F0" />
      <stop offset="100%" stop-color="#E0D4FF" />
    </linearGradient>
    <linearGradient id="heart" x1="0%" y1="0%" x2="0%" y2="100%">
      <stop offset="0%" stop-color="#FF8FAB" />
      <stop offset="100%" stop-color="#FF4D80" />
    </linearGradient>
  </defs>

  <rect width="32" height="32" rx="7" fill="url(#bg)" />

  <path
    d="M16 25.2 C 16 25.2, 6.5 20, 6.5 13.5 C 6.5 10.5, 8.8 8.4, 11.3 8.4 C 13.3 8.4, 15 9.6, 16 11.2 C 17 9.6, 18.7 8.4, 20.7 8.4 C 23.2 8.4, 25.5 10.5, 25.5 13.5 C 25.5 20, 16 25.2, 16 25.2 Z"
    fill="url(#heart)"
  />

  <path
    d="M6 5 L6.6 6.4 L8 6.6 L7 7.6 L7.2 9 L6 8.3 L4.8 9 L5 7.6 L4 6.6 L5.4 6.4 Z"
    fill="#FFD93D"
  />

  <g transform="translate(21.5, 20.5)">
    <ellipse cx="0" cy="4.3" rx="2" ry="1.6" fill="#7C5CFF" transform="rotate(-18 0 4.3)" />
    <rect x="1.5" y="-2.8" width="1" height="7" fill="#7C5CFF" />
    <path d="M2.5 -2.8 Q5 -3.2 5 -1.2" stroke="#7C5CFF" stroke-width="1" fill="none" stroke-linecap="round" />
  </g>
</svg>
